<mxfile host="Electron" agent="Mozilla/5.0 (Macintosh; Intel Mac OS X 10_15_7) AppleWebKit/537.36 (KHTML, like Gecko) draw.io/27.0.9 Chrome/134.0.6998.205 Electron/35.4.0 Safari/537.36" version="27.0.9">
  <diagram name="Page-1" id="5f0bae14-7c28-e335-631c-24af17079c00">
    <mxGraphModel dx="1028" dy="674" grid="1" gridSize="10" guides="1" tooltips="1" connect="1" arrows="1" fold="1" page="1" pageScale="1" pageWidth="1100" pageHeight="850" background="none" math="0" shadow="0">
      <root>
        <mxCell id="0" />
        <mxCell id="1" parent="0" />
        <mxCell id="5kCFiVFuyT8CcsPlyM7a-3" value="«subsystem&lt;span style=&quot;background-color: transparent; color: light-dark(rgb(0, 0, 0), rgb(255, 255, 255));&quot;&gt;»&lt;/span&gt;&lt;div&gt;&lt;div&gt;&lt;b&gt;External Information Systems&lt;/b&gt;&lt;/div&gt;&lt;/div&gt;" style="html=1;dropTarget=0;whiteSpace=wrap;verticalAlign=top;" parent="1" vertex="1">
          <mxGeometry x="50" y="360" width="240" height="125" as="geometry" />
        </mxCell>
        <mxCell id="5kCFiVFuyT8CcsPlyM7a-4" value="" style="shape=module;jettyWidth=8;jettyHeight=4;" parent="5kCFiVFuyT8CcsPlyM7a-3" vertex="1">
          <mxGeometry x="1" width="20" height="20" relative="1" as="geometry">
            <mxPoint x="-27" y="7" as="offset" />
          </mxGeometry>
        </mxCell>
        <mxCell id="5kCFiVFuyT8CcsPlyM7a-7" value="«component&lt;span style=&quot;background-color: transparent; color: light-dark(rgb(0, 0, 0), rgb(255, 255, 255));&quot;&gt;»&lt;/span&gt;&lt;div&gt;&lt;div&gt;&lt;b&gt;Application Server&lt;/b&gt;&lt;/div&gt;&lt;/div&gt;" style="html=1;dropTarget=0;whiteSpace=wrap;verticalAlign=middle;" parent="1" vertex="1">
          <mxGeometry x="70" y="415" width="200" height="50" as="geometry" />
        </mxCell>
        <mxCell id="5kCFiVFuyT8CcsPlyM7a-8" value="" style="shape=module;jettyWidth=8;jettyHeight=4;" parent="5kCFiVFuyT8CcsPlyM7a-7" vertex="1">
          <mxGeometry x="1" width="20" height="20" relative="1" as="geometry">
            <mxPoint x="-27" y="7" as="offset" />
          </mxGeometry>
        </mxCell>
        <mxCell id="5kCFiVFuyT8CcsPlyM7a-14" value="«subsystem&lt;span style=&quot;background-color: transparent; color: light-dark(rgb(0, 0, 0), rgb(255, 255, 255));&quot;&gt;»&lt;/span&gt;&lt;div&gt;&lt;div&gt;&lt;b&gt;Local PACS&lt;/b&gt;&lt;/div&gt;&lt;/div&gt;" style="html=1;dropTarget=0;whiteSpace=wrap;verticalAlign=top;" parent="1" vertex="1">
          <mxGeometry x="356" y="150" width="236" height="400" as="geometry" />
        </mxCell>
        <mxCell id="5kCFiVFuyT8CcsPlyM7a-15" value="" style="shape=module;jettyWidth=8;jettyHeight=4;" parent="5kCFiVFuyT8CcsPlyM7a-14" vertex="1">
          <mxGeometry x="1" width="20" height="20" relative="1" as="geometry">
            <mxPoint x="-27" y="7" as="offset" />
          </mxGeometry>
        </mxCell>
        <mxCell id="5kCFiVFuyT8CcsPlyM7a-16" value="«component&lt;span style=&quot;background-color: transparent; color: light-dark(rgb(0, 0, 0), rgb(255, 255, 255));&quot;&gt;»&lt;/span&gt;&lt;div&gt;&lt;div&gt;&lt;b&gt;Database Gateway&lt;/b&gt;&lt;/div&gt;&lt;/div&gt;" style="html=1;dropTarget=0;whiteSpace=wrap;verticalAlign=middle;" parent="1" vertex="1">
          <mxGeometry x="374" y="210" width="200" height="50" as="geometry" />
        </mxCell>
        <mxCell id="5kCFiVFuyT8CcsPlyM7a-17" value="" style="shape=module;jettyWidth=8;jettyHeight=4;" parent="5kCFiVFuyT8CcsPlyM7a-16" vertex="1">
          <mxGeometry x="1" width="20" height="20" relative="1" as="geometry">
            <mxPoint x="-27" y="7" as="offset" />
          </mxGeometry>
        </mxCell>
        <mxCell id="5kCFiVFuyT8CcsPlyM7a-74" style="edgeStyle=orthogonalEdgeStyle;shape=connector;rounded=0;orthogonalLoop=1;jettySize=auto;html=1;exitX=0.5;exitY=1;exitDx=0;exitDy=0;entryX=0.5;entryY=0;entryDx=0;entryDy=0;strokeColor=default;align=center;verticalAlign=middle;fontFamily=Helvetica;fontSize=11;fontColor=default;labelBackgroundColor=default;startFill=0;endArrow=none;" parent="1" source="5kCFiVFuyT8CcsPlyM7a-18" target="5kCFiVFuyT8CcsPlyM7a-73" edge="1">
          <mxGeometry relative="1" as="geometry">
            <mxPoint x="548" y="690" as="sourcePoint" />
          </mxGeometry>
        </mxCell>
        <mxCell id="5kCFiVFuyT8CcsPlyM7a-18" value="«component&lt;span style=&quot;background-color: transparent; color: light-dark(rgb(0, 0, 0), rgb(255, 255, 255));&quot;&gt;»&lt;/span&gt;&lt;div&gt;&lt;b&gt;PACS Server and Archive&lt;/b&gt;&lt;/div&gt;" style="html=1;dropTarget=0;whiteSpace=wrap;verticalAlign=middle;" parent="1" vertex="1">
          <mxGeometry x="374" y="369.5" width="200" height="50" as="geometry" />
        </mxCell>
        <mxCell id="5kCFiVFuyT8CcsPlyM7a-19" value="" style="shape=module;jettyWidth=8;jettyHeight=4;" parent="5kCFiVFuyT8CcsPlyM7a-18" vertex="1">
          <mxGeometry x="1" width="20" height="20" relative="1" as="geometry">
            <mxPoint x="-27" y="7" as="offset" />
          </mxGeometry>
        </mxCell>
        <mxCell id="5kCFiVFuyT8CcsPlyM7a-24" value="«subsystem&lt;span style=&quot;background-color: transparent; color: light-dark(rgb(0, 0, 0), rgb(255, 255, 255));&quot;&gt;»&lt;/span&gt;&lt;div&gt;&lt;b&gt;Local Information Systems&lt;/b&gt;&lt;/div&gt;" style="html=1;dropTarget=0;whiteSpace=wrap;verticalAlign=top;" parent="1" vertex="1">
          <mxGeometry x="50" y="500" width="240" height="130" as="geometry" />
        </mxCell>
        <mxCell id="5kCFiVFuyT8CcsPlyM7a-25" value="" style="shape=module;jettyWidth=8;jettyHeight=4;" parent="5kCFiVFuyT8CcsPlyM7a-24" vertex="1">
          <mxGeometry x="1" width="20" height="20" relative="1" as="geometry">
            <mxPoint x="-27" y="7" as="offset" />
          </mxGeometry>
        </mxCell>
        <mxCell id="5kCFiVFuyT8CcsPlyM7a-28" value="«component&lt;span style=&quot;background-color: transparent; color: light-dark(rgb(0, 0, 0), rgb(255, 255, 255));&quot;&gt;»&lt;/span&gt;&lt;div&gt;&lt;b&gt;LIS Database&lt;/b&gt;&lt;/div&gt;" style="html=1;dropTarget=0;whiteSpace=wrap;verticalAlign=middle;" parent="1" vertex="1">
          <mxGeometry x="70" y="560" width="200" height="50" as="geometry" />
        </mxCell>
        <mxCell id="5kCFiVFuyT8CcsPlyM7a-29" value="" style="shape=module;jettyWidth=8;jettyHeight=4;" parent="5kCFiVFuyT8CcsPlyM7a-28" vertex="1">
          <mxGeometry x="1" width="20" height="20" relative="1" as="geometry">
            <mxPoint x="-27" y="7" as="offset" />
          </mxGeometry>
        </mxCell>
        <mxCell id="5kCFiVFuyT8CcsPlyM7a-73" value="" style="ellipse;whiteSpace=wrap;html=1;aspect=fixed;fontFamily=Helvetica;fontSize=11;fontColor=default;labelBackgroundColor=default;" parent="1" vertex="1">
          <mxGeometry x="464" y="430" width="20" height="20" as="geometry" />
        </mxCell>
        <mxCell id="5kCFiVFuyT8CcsPlyM7a-75" value="" style="shape=requiredInterface;html=1;verticalLabelPosition=bottom;sketch=0;fontFamily=Helvetica;fontSize=11;fontColor=default;labelBackgroundColor=default;rotation=90;" parent="1" vertex="1">
          <mxGeometry x="468" y="450" width="12" height="25" as="geometry" />
        </mxCell>
        <mxCell id="5kCFiVFuyT8CcsPlyM7a-77" value="" style="shape=requiredInterface;html=1;verticalLabelPosition=bottom;sketch=0;fontFamily=Helvetica;fontSize=11;fontColor=default;labelBackgroundColor=default;rotation=-180;" parent="1" vertex="1">
          <mxGeometry x="446" y="427.5" width="12" height="25" as="geometry" />
        </mxCell>
        <mxCell id="5kCFiVFuyT8CcsPlyM7a-78" style="edgeStyle=orthogonalEdgeStyle;shape=connector;rounded=0;orthogonalLoop=1;jettySize=auto;html=1;strokeColor=default;align=center;verticalAlign=middle;fontFamily=Helvetica;fontSize=11;fontColor=default;labelBackgroundColor=default;startFill=0;endArrow=none;exitX=1;exitY=0.5;exitDx=0;exitDy=0;exitPerimeter=0;entryX=0.5;entryY=0;entryDx=0;entryDy=0;" parent="1" source="5kCFiVFuyT8CcsPlyM7a-75" target="PJhBrgmMQJuCs34pvBuN-9" edge="1">
          <mxGeometry relative="1" as="geometry">
            <mxPoint x="548" y="590" as="sourcePoint" />
            <mxPoint x="610" y="580" as="targetPoint" />
          </mxGeometry>
        </mxCell>
        <mxCell id="PJhBrgmMQJuCs34pvBuN-1" value="«subsystem&lt;span style=&quot;background-color: transparent; color: light-dark(rgb(0, 0, 0), rgb(255, 255, 255));&quot;&gt;»&lt;/span&gt;&lt;div&gt;&lt;div&gt;&lt;b&gt;Local Imaging Modalities&lt;/b&gt;&lt;/div&gt;&lt;/div&gt;" style="html=1;dropTarget=0;whiteSpace=wrap;verticalAlign=top;" vertex="1" parent="1">
          <mxGeometry x="50" y="150" width="240" height="130" as="geometry" />
        </mxCell>
        <mxCell id="PJhBrgmMQJuCs34pvBuN-2" value="" style="shape=module;jettyWidth=8;jettyHeight=4;" vertex="1" parent="PJhBrgmMQJuCs34pvBuN-1">
          <mxGeometry x="1" width="20" height="20" relative="1" as="geometry">
            <mxPoint x="-27" y="7" as="offset" />
          </mxGeometry>
        </mxCell>
        <mxCell id="5kCFiVFuyT8CcsPlyM7a-80" value="Workflow&lt;div&gt;Service&lt;/div&gt;" style="text;html=1;align=center;verticalAlign=middle;resizable=0;points=[];autosize=1;strokeColor=none;fillColor=none;fontFamily=Helvetica;fontSize=11;fontColor=default;labelBackgroundColor=default;" parent="1" vertex="1">
          <mxGeometry x="480.5" y="420" width="70" height="40" as="geometry" />
        </mxCell>
        <mxCell id="PJhBrgmMQJuCs34pvBuN-3" value="«component&lt;span style=&quot;background-color: transparent; color: light-dark(rgb(0, 0, 0), rgb(255, 255, 255));&quot;&gt;»&lt;/span&gt;&lt;div&gt;&lt;b&gt;Image Scanner&lt;/b&gt;&lt;/div&gt;" style="html=1;dropTarget=0;whiteSpace=wrap;verticalAlign=middle;" vertex="1" parent="1">
          <mxGeometry x="70" y="210" width="200" height="50" as="geometry" />
        </mxCell>
        <mxCell id="PJhBrgmMQJuCs34pvBuN-4" value="" style="shape=module;jettyWidth=8;jettyHeight=4;" vertex="1" parent="PJhBrgmMQJuCs34pvBuN-3">
          <mxGeometry x="1" width="20" height="20" relative="1" as="geometry">
            <mxPoint x="-27" y="7" as="offset" />
          </mxGeometry>
        </mxCell>
        <mxCell id="PJhBrgmMQJuCs34pvBuN-5" value="«component&lt;span style=&quot;background-color: transparent; color: light-dark(rgb(0, 0, 0), rgb(255, 255, 255));&quot;&gt;»&lt;/span&gt;&lt;div&gt;&lt;div&gt;&lt;b&gt;Acquisition Gateway&lt;/b&gt;&lt;/div&gt;&lt;/div&gt;" style="html=1;dropTarget=0;whiteSpace=wrap;verticalAlign=middle;" vertex="1" parent="1">
          <mxGeometry x="374" y="278" width="200" height="50" as="geometry" />
        </mxCell>
        <mxCell id="PJhBrgmMQJuCs34pvBuN-6" value="" style="shape=module;jettyWidth=8;jettyHeight=4;" vertex="1" parent="PJhBrgmMQJuCs34pvBuN-5">
          <mxGeometry x="1" width="20" height="20" relative="1" as="geometry">
            <mxPoint x="-27" y="7" as="offset" />
          </mxGeometry>
        </mxCell>
        <mxCell id="PJhBrgmMQJuCs34pvBuN-9" value="«component&lt;span style=&quot;background-color: transparent; color: light-dark(rgb(0, 0, 0), rgb(255, 255, 255));&quot;&gt;»&lt;/span&gt;&lt;div&gt;&lt;b&gt;PACS Workstation&lt;/b&gt;&lt;/div&gt;" style="html=1;dropTarget=0;whiteSpace=wrap;verticalAlign=middle;" vertex="1" parent="1">
          <mxGeometry x="374" y="480" width="200" height="50" as="geometry" />
        </mxCell>
        <mxCell id="PJhBrgmMQJuCs34pvBuN-10" value="" style="shape=module;jettyWidth=8;jettyHeight=4;" vertex="1" parent="PJhBrgmMQJuCs34pvBuN-9">
          <mxGeometry x="1" width="20" height="20" relative="1" as="geometry">
            <mxPoint x="-27" y="7" as="offset" />
          </mxGeometry>
        </mxCell>
        <mxCell id="5kCFiVFuyT8CcsPlyM7a-46" style="rounded=0;orthogonalLoop=1;jettySize=auto;html=1;endArrow=none;startFill=0;exitX=1;exitY=0.5;exitDx=0;exitDy=0;entryX=0.5;entryY=1;entryDx=0;entryDy=0;edgeStyle=orthogonalEdgeStyle;" parent="1" source="5kCFiVFuyT8CcsPlyM7a-28" target="PJhBrgmMQJuCs34pvBuN-36" edge="1">
          <mxGeometry relative="1" as="geometry">
            <mxPoint x="270" y="566" as="sourcePoint" />
            <mxPoint x="310" y="565.5" as="targetPoint" />
            <Array as="points">
              <mxPoint x="628" y="585" />
            </Array>
          </mxGeometry>
        </mxCell>
        <mxCell id="5kCFiVFuyT8CcsPlyM7a-45" style="edgeStyle=orthogonalEdgeStyle;rounded=0;orthogonalLoop=1;jettySize=auto;html=1;endArrow=none;startFill=0;exitX=1;exitY=0.5;exitDx=0;exitDy=0;entryX=1;entryY=0.5;entryDx=0;entryDy=0;entryPerimeter=0;" parent="1" source="5kCFiVFuyT8CcsPlyM7a-18" target="PJhBrgmMQJuCs34pvBuN-38" edge="1">
          <mxGeometry relative="1" as="geometry">
            <mxPoint x="670" y="397.5" as="targetPoint" />
            <mxPoint x="650" y="398" as="sourcePoint" />
          </mxGeometry>
        </mxCell>
        <mxCell id="5kCFiVFuyT8CcsPlyM7a-56" value="Case&lt;div&gt;Information&lt;br&gt;&lt;div&gt;Service&lt;/div&gt;&lt;/div&gt;" style="text;html=1;align=center;verticalAlign=middle;resizable=0;points=[];autosize=1;strokeColor=none;fillColor=none;fontFamily=Helvetica;fontSize=11;fontColor=default;labelBackgroundColor=default;" parent="1" vertex="1">
          <mxGeometry x="634" y="369.5" width="80" height="50" as="geometry" />
        </mxCell>
        <mxCell id="PJhBrgmMQJuCs34pvBuN-11" value="" style="shape=providedRequiredInterface;html=1;verticalLabelPosition=bottom;sketch=0;rotation=-180;" vertex="1" parent="1">
          <mxGeometry x="310.25" y="222.5" width="25" height="25" as="geometry" />
        </mxCell>
        <mxCell id="PJhBrgmMQJuCs34pvBuN-12" style="rounded=0;orthogonalLoop=1;jettySize=auto;html=1;endArrow=none;startFill=0;exitX=1;exitY=0.5;exitDx=0;exitDy=0;entryX=1;entryY=0.5;entryDx=0;entryDy=0;entryPerimeter=0;" edge="1" parent="1" target="PJhBrgmMQJuCs34pvBuN-11">
          <mxGeometry relative="1" as="geometry">
            <mxPoint x="270" y="235" as="sourcePoint" />
            <mxPoint x="300" y="235" as="targetPoint" />
          </mxGeometry>
        </mxCell>
        <mxCell id="PJhBrgmMQJuCs34pvBuN-14" value="Scan&lt;div&gt;Information&lt;br&gt;&lt;div&gt;Service&lt;/div&gt;&lt;/div&gt;" style="text;html=1;align=center;verticalAlign=middle;resizable=0;points=[];autosize=1;strokeColor=none;fillColor=none;fontFamily=Helvetica;fontSize=11;fontColor=default;labelBackgroundColor=default;" vertex="1" parent="1">
          <mxGeometry x="282.75" y="172.5" width="80" height="50" as="geometry" />
        </mxCell>
        <mxCell id="PJhBrgmMQJuCs34pvBuN-24" value="" style="shape=providedRequiredInterface;html=1;verticalLabelPosition=bottom;sketch=0;rotation=-90;" vertex="1" parent="1">
          <mxGeometry x="461.5" y="337.5" width="25" height="25" as="geometry" />
        </mxCell>
        <mxCell id="PJhBrgmMQJuCs34pvBuN-25" style="edgeStyle=orthogonalEdgeStyle;rounded=0;orthogonalLoop=1;jettySize=auto;html=1;endArrow=none;startFill=0;exitX=0;exitY=0.5;exitDx=0;exitDy=0;entryX=0.5;entryY=0;entryDx=0;entryDy=0;exitPerimeter=0;" edge="1" parent="1" target="5kCFiVFuyT8CcsPlyM7a-18" source="PJhBrgmMQJuCs34pvBuN-24">
          <mxGeometry relative="1" as="geometry">
            <mxPoint x="380" y="365" as="sourcePoint" />
            <mxPoint x="400" y="365" as="targetPoint" />
          </mxGeometry>
        </mxCell>
        <mxCell id="PJhBrgmMQJuCs34pvBuN-26" style="edgeStyle=orthogonalEdgeStyle;rounded=0;orthogonalLoop=1;jettySize=auto;html=1;entryX=0.5;entryY=1;entryDx=0;entryDy=0;endArrow=none;startFill=0;exitX=1;exitY=0.5;exitDx=0;exitDy=0;exitPerimeter=0;" edge="1" parent="1" source="PJhBrgmMQJuCs34pvBuN-24" target="PJhBrgmMQJuCs34pvBuN-5">
          <mxGeometry relative="1" as="geometry">
            <mxPoint x="560" y="364.66" as="targetPoint" />
            <mxPoint x="542" y="364.66" as="sourcePoint" />
          </mxGeometry>
        </mxCell>
        <mxCell id="PJhBrgmMQJuCs34pvBuN-27" value="&lt;div&gt;Archive&lt;br&gt;&lt;div&gt;Service&lt;/div&gt;&lt;/div&gt;" style="text;html=1;align=center;verticalAlign=middle;resizable=0;points=[];autosize=1;strokeColor=none;fillColor=none;fontFamily=Helvetica;fontSize=11;fontColor=default;labelBackgroundColor=default;" vertex="1" parent="1">
          <mxGeometry x="481" y="330" width="60" height="40" as="geometry" />
        </mxCell>
        <mxCell id="PJhBrgmMQJuCs34pvBuN-36" value="" style="ellipse;whiteSpace=wrap;html=1;aspect=fixed;fontFamily=Helvetica;fontSize=11;fontColor=default;labelBackgroundColor=default;" vertex="1" parent="1">
          <mxGeometry x="618" y="384.5" width="20" height="20" as="geometry" />
        </mxCell>
        <mxCell id="PJhBrgmMQJuCs34pvBuN-38" value="" style="shape=requiredInterface;html=1;verticalLabelPosition=bottom;sketch=0;fontFamily=Helvetica;fontSize=11;fontColor=default;labelBackgroundColor=default;rotation=-180;" vertex="1" parent="1">
          <mxGeometry x="599" y="382" width="12" height="25" as="geometry" />
        </mxCell>
        <mxCell id="PJhBrgmMQJuCs34pvBuN-41" value="" style="shape=requiredInterface;html=1;verticalLabelPosition=bottom;sketch=0;fontFamily=Helvetica;fontSize=11;fontColor=default;labelBackgroundColor=default;rotation=-90;" vertex="1" parent="1">
          <mxGeometry x="622" y="360" width="12" height="25" as="geometry" />
        </mxCell>
        <mxCell id="PJhBrgmMQJuCs34pvBuN-13" style="edgeStyle=orthogonalEdgeStyle;rounded=0;orthogonalLoop=1;jettySize=auto;html=1;endArrow=none;startFill=0;entryX=0;entryY=0.5;entryDx=0;entryDy=0;exitX=0;exitY=0.5;exitDx=0;exitDy=0;exitPerimeter=0;" edge="1" parent="1" source="PJhBrgmMQJuCs34pvBuN-11">
          <mxGeometry relative="1" as="geometry">
            <mxPoint x="374" y="235" as="targetPoint" />
            <mxPoint x="340" y="235" as="sourcePoint" />
          </mxGeometry>
        </mxCell>
        <mxCell id="PJhBrgmMQJuCs34pvBuN-44" value="" style="shape=providedRequiredInterface;html=1;verticalLabelPosition=bottom;sketch=0;rotation=-180;" vertex="1" parent="1">
          <mxGeometry x="311" y="291.5" width="25" height="25" as="geometry" />
        </mxCell>
        <mxCell id="PJhBrgmMQJuCs34pvBuN-45" style="edgeStyle=orthogonalEdgeStyle;rounded=0;orthogonalLoop=1;jettySize=auto;html=1;endArrow=none;startFill=0;exitX=0.5;exitY=1;exitDx=0;exitDy=0;entryX=1;entryY=0.5;entryDx=0;entryDy=0;entryPerimeter=0;" edge="1" parent="1" target="PJhBrgmMQJuCs34pvBuN-44" source="PJhBrgmMQJuCs34pvBuN-3">
          <mxGeometry relative="1" as="geometry">
            <mxPoint x="270.75" y="310" as="sourcePoint" />
            <mxPoint x="300" y="310" as="targetPoint" />
            <Array as="points">
              <mxPoint x="170" y="304" />
            </Array>
          </mxGeometry>
        </mxCell>
        <mxCell id="PJhBrgmMQJuCs34pvBuN-46" value="&lt;div&gt;Acquisition&lt;br&gt;&lt;div&gt;Service&lt;/div&gt;&lt;/div&gt;" style="text;html=1;align=center;verticalAlign=middle;resizable=0;points=[];autosize=1;strokeColor=none;fillColor=none;fontFamily=Helvetica;fontSize=11;fontColor=default;labelBackgroundColor=default;" vertex="1" parent="1">
          <mxGeometry x="283.5" y="254" width="80" height="40" as="geometry" />
        </mxCell>
        <mxCell id="PJhBrgmMQJuCs34pvBuN-47" style="edgeStyle=orthogonalEdgeStyle;rounded=0;orthogonalLoop=1;jettySize=auto;html=1;endArrow=none;startFill=0;entryX=0;entryY=0.5;entryDx=0;entryDy=0;exitX=0;exitY=0.5;exitDx=0;exitDy=0;exitPerimeter=0;" edge="1" parent="1" source="PJhBrgmMQJuCs34pvBuN-44">
          <mxGeometry relative="1" as="geometry">
            <mxPoint x="374.75" y="304" as="targetPoint" />
            <mxPoint x="340" y="304" as="sourcePoint" />
          </mxGeometry>
        </mxCell>
        <mxCell id="PJhBrgmMQJuCs34pvBuN-49" style="edgeStyle=orthogonalEdgeStyle;rounded=0;orthogonalLoop=1;jettySize=auto;html=1;endArrow=none;startFill=0;entryX=1;entryY=0.5;entryDx=0;entryDy=0;entryPerimeter=0;exitX=1;exitY=0.5;exitDx=0;exitDy=0;" edge="1" parent="1" source="5kCFiVFuyT8CcsPlyM7a-16" target="PJhBrgmMQJuCs34pvBuN-41">
          <mxGeometry relative="1" as="geometry">
            <mxPoint x="634" y="415.52" as="targetPoint" />
            <mxPoint x="628" y="345.52" as="sourcePoint" />
          </mxGeometry>
        </mxCell>
        <mxCell id="PJhBrgmMQJuCs34pvBuN-52" style="edgeStyle=orthogonalEdgeStyle;shape=connector;rounded=0;orthogonalLoop=1;jettySize=auto;html=1;strokeColor=default;align=center;verticalAlign=middle;fontFamily=Helvetica;fontSize=11;fontColor=default;labelBackgroundColor=default;startFill=0;endArrow=none;exitX=1;exitY=0.5;exitDx=0;exitDy=0;entryX=1;entryY=0.5;entryDx=0;entryDy=0;entryPerimeter=0;" edge="1" parent="1" source="5kCFiVFuyT8CcsPlyM7a-7" target="5kCFiVFuyT8CcsPlyM7a-77">
          <mxGeometry relative="1" as="geometry">
            <mxPoint x="330" y="440" as="sourcePoint" />
            <mxPoint x="330" y="451" as="targetPoint" />
          </mxGeometry>
        </mxCell>
      </root>
    </mxGraphModel>
  </diagram>
</mxfile>
